<?xml version="1.0" encoding="utf-8" ?>
<svg baseProfile="full" height="512" version="1.1" width="512" xmlns="http://www.w3.org/2000/svg" xmlns:ev="http://www.w3.org/2001/xml-events" xmlns:xlink="http://www.w3.org/1999/xlink"><defs /><g id="treeplot" style="stroke: black; stroke-width: 1; fill: none; stroke-linecap: round;"><line transform="translate(256.0 256.0) rotate(-97.33695652173914)" x1="0" x2="27" y1="0" y2="0" /><line transform="translate(256.0 256.0) rotate(-29.347826086956523)" x1="27" x2="69" y1="0" y2="0" /><line transform="translate(256.0 256.0) rotate(-7.826086956521738)" x1="69" x2="150" y1="0" y2="0" /><line transform="translate(256.0 256.0) rotate(-0.0)" x1="150" x2="162" y1="0" y2="0" /><line transform="translate(256.0 256.0) rotate(-15.652173913043477)" x1="150" x2="162" y1="0" y2="0" /><path d="M144.4375931021699,-40.469515673553644 A 150 150 0 0,1 150.0 -0.0" transform="translate(256.0 256.0)" /><line transform="translate(256.0 256.0) rotate(-50.8695652173913)" x1="69" x2="99" y1="0" y2="0" /><line transform="translate(256.0 256.0) rotate(-39.13043478260869)" x1="99" x2="147" y1="0" y2="0" /><line transform="translate(256.0 256.0) rotate(-31.304347826086953)" x1="147" x2="162" y1="0" y2="0" /><line transform="translate(256.0 256.0) rotate(-46.95652173913044)" x1="147" x2="162" y1="0" y2="0" /><path d="M100.33531205314216,-107.43288674888423 A 147 147 0 0,1 125.59965246833382 -76.37884065520873" transform="translate(256.0 256.0)" /><line transform="translate(256.0 256.0) rotate(-62.60869565217391)" x1="99" x2="162" y1="0" y2="0" /><path d="M45.546438735384065,-87.90063662183515 A 99 99 0 0,1 76.79541777973758 -62.477706488279225" transform="translate(256.0 256.0)" /><path d="M43.54506815849765,-53.52407905860496 A 69 69 0 0,1 68.35733027650683 -9.395498787641015" transform="translate(256.0 256.0)" /><line transform="translate(256.0 256.0) rotate(-165.32608695652172)" x1="27" x2="51" y1="0" y2="0" /><line transform="translate(256.0 256.0) rotate(-119.34782608695653)" x1="51" x2="90" y1="0" y2="0" /><line transform="translate(256.0 256.0) rotate(-90.0)" x1="90" x2="108" y1="0" y2="0" /><line transform="translate(256.0 256.0) rotate(-78.26086956521738)" x1="108" x2="162" y1="0" y2="0" /><line transform="translate(256.0 256.0) rotate(-101.73913043478261)" x1="108" x2="123" y1="0" y2="0" /><line transform="translate(256.0 256.0) rotate(-93.91304347826087)" x1="123" x2="162" y1="0" y2="0" /><line transform="translate(256.0 256.0) rotate(-109.56521739130436)" x1="123" x2="162" y1="0" y2="0" /><path d="M-41.190192297031295,-115.89809342061493 A 123 123 0 0,1 -8.39381684385452 -122.71325861043631" transform="translate(256.0 256.0)" /><path d="M-21.973249409684456,-105.74108146969087 A 108 108 0 0,1 21.97324940968447 -105.74108146969087" transform="translate(256.0 256.0)" /><line transform="translate(256.0 256.0) rotate(-148.69565217391306)" x1="90" x2="114" y1="0" y2="0" /><line transform="translate(256.0 256.0) rotate(-133.04347826086956)" x1="114" x2="135" y1="0" y2="0" /><line transform="translate(256.0 256.0) rotate(-125.21739130434781)" x1="135" x2="162" y1="0" y2="0" /><line transform="translate(256.0 256.0) rotate(-140.8695652173913)" x1="135" x2="162" y1="0" y2="0" /><path d="M-104.72102424509666,-85.19687248401715 A 135 135 0 0,1 -77.85184348550705 -110.29093555640968" transform="translate(256.0 256.0)" /><line transform="translate(256.0 256.0) rotate(-164.34782608695653)" x1="114" x2="156" y1="0" y2="0" /><line transform="translate(256.0 256.0) rotate(-156.52173913043475)" x1="156" x2="162" y1="0" y2="0" /><line transform="translate(256.0 256.0) rotate(-172.17391304347825)" x1="156" x2="162" y1="0" y2="0" /><path d="M-154.5470075816676,-21.24199725901448 A 156 156 0 0,1 -143.08496303485063 -62.15057001601372" transform="translate(256.0 256.0)" /><path d="M-109.77257075764912,-30.75683191190077 A 114 114 0 0,1 -77.81105832692654 -83.31529992770618" transform="translate(256.0 256.0)" /><path d="M-76.89774640918397,-46.76255550318901 A 90 90 0 0,1 5.5109105961630896e-15 -90.0" transform="translate(256.0 256.0)" /><line transform="translate(256.0 256.0) rotate(-211.30434782608694)" x1="51" x2="108" y1="0" y2="0" /><line transform="translate(256.0 256.0) rotate(-195.6521739130435)" x1="108" x2="150" y1="0" y2="0" /><line transform="translate(256.0 256.0) rotate(-187.82608695652175)" x1="150" x2="162" y1="0" y2="0" /><line transform="translate(256.0 256.0) rotate(-203.4782608695652)" x1="150" x2="162" y1="0" y2="0" /><path d="M-137.58169522581798,59.76016347693618 A 150 150 0 0,1 -148.6028919054496 20.424997364436965" transform="translate(256.0 256.0)" /><line transform="translate(256.0 256.0) rotate(-226.95652173913044)" x1="108" x2="144" y1="0" y2="0" /><line transform="translate(256.0 256.0) rotate(-219.13043478260872)" x1="144" x2="162" y1="0" y2="0" /><line transform="translate(256.0 256.0) rotate(-234.7826086956522)" x1="144" x2="162" y1="0" y2="0" /><path d="M-83.0419663845409,117.64366459350363 A 144 144 0 0,1 -111.70242586143645 90.87666398295161" transform="translate(256.0 256.0)" /><path d="M-73.71573946761464,78.9302841420374 A 108 108 0 0,1 -103.99506703356234 29.138051284958596" transform="translate(256.0 256.0)" /><path d="M-43.57538963187093,26.498781451807094 A 51 51 0 0,1 -24.99562107607888 -44.45468397167031" transform="translate(256.0 256.0)" /><path d="M-26.11934611216249,-6.839572989088006 A 27 27 0 0,1 23.534832690884283 -13.232975863806464" transform="translate(256.0 256.0)" /><line transform="translate(256.0 256.0) rotate(-310.1086956521739)" x1="0" x2="63" y1="0" y2="0" /><line transform="translate(256.0 256.0) rotate(-283.695652173913)" x1="63" x2="93" y1="0" y2="0" /><line transform="translate(256.0 256.0) rotate(-262.17391304347825)" x1="93" x2="129" y1="0" y2="0" /><line transform="translate(256.0 256.0) rotate(-250.43478260869563)" x1="129" x2="162" y1="0" y2="0" /><line transform="translate(256.0 256.0) rotate(-273.9130434782608)" x1="129" x2="144" y1="0" y2="0" /><line transform="translate(256.0 256.0) rotate(-266.0869565217391)" x1="144" x2="162" y1="0" y2="0" /><line transform="translate(256.0 256.0) rotate(-281.7391304347826)" x1="144" x2="162" y1="0" y2="0" /><path d="M29.297665879579192,140.98810862625453 A 144 144 0 0,1 -9.826907524512674 143.66430276343763" transform="translate(256.0 256.0)" /><path d="M8.803271324042443,128.69927122557957 A 129 129 0 0,1 -43.199469970057244 121.55165895332783" transform="translate(256.0 256.0)" /><line transform="translate(256.0 256.0) rotate(-305.2173913043478)" x1="93" x2="132" y1="0" y2="0" /><line transform="translate(256.0 256.0) rotate(-297.39130434782606)" x1="132" x2="162" y1="0" y2="0" /><line transform="translate(256.0 256.0) rotate(-313.0434782608695)" x1="132" x2="162" y1="0" y2="0" /><path d="M90.09701490486226,96.47034728471245 A 132 132 0 0,1 60.72858498051201 117.20084882911357" transform="translate(256.0 256.0)" /><path d="M53.63126995668256,75.97820004997118 A 93 93 0 0,1 -12.663498365950986 92.13379298137875" transform="translate(256.0 256.0)" /><line transform="translate(256.0 256.0) rotate(-336.5217391304348)" x1="63" x2="138" y1="0" y2="0" /><line transform="translate(256.0 256.0) rotate(-328.69565217391306)" x1="138" x2="162" y1="0" y2="0" /><line transform="translate(256.0 256.0) rotate(-344.3478260869565)" x1="138" x2="162" y1="0" y2="0" /><path d="M132.8825856539963,37.231954419669364 A 138 138 0 0,1 117.90987782741543 71.70258510488983" transform="translate(256.0 256.0)" /><path d="M57.78431199484355,25.099268660313186 A 63 63 0 0,1 14.916158489386092 61.208726632070324" transform="translate(256.0 256.0)" /></g></svg>