<svg xmlns="http://www.w3.org/2000/svg" width="1400" height="520" viewBox="0 0 1400 520">
<rect width="100%" height="100%" fill="white"/>
<text x="700.0" y="30" text-anchor="middle" font-family="Helvetica, Arial, sans-serif" font-size="20">Brightness Distribution (Full 8-bit Dynamic Range: 0-255)</text>
<text x="700.0" y="50" text-anchor="middle" font-family="Helvetica, Arial, sans-serif" font-size="13" fill="#555">examples/input/frame000-bogus.tif (first image plane)</text>
<line x1="70" y1="455" x2="1375" y2="455" stroke="#333" stroke-width="1"/>
<line x1="70" y1="455" x2="70" y2="55" stroke="#333" stroke-width="1"/>
<line x1="66" y1="455.00" x2="70" y2="455.00" stroke="#333" stroke-width="1"/>
<text x="62" y="459.00" text-anchor="end" font-family="Helvetica, Arial, sans-serif" font-size="11">0</text>
<line x1="66" y1="355.00" x2="70" y2="355.00" stroke="#333" stroke-width="1"/>
<line x1="66" y1="255.00" x2="70" y2="255.00" stroke="#333" stroke-width="1"/>
<line x1="66" y1="155.00" x2="70" y2="155.00" stroke="#333" stroke-width="1"/>
<line x1="66" y1="55.00" x2="70" y2="55.00" stroke="#333" stroke-width="1"/>
<text x="62" y="59.00" text-anchor="end" font-family="Helvetica, Arial, sans-serif" font-size="11">215794</text>
<line x1="72.55" y1="455" x2="72.55" y2="459" stroke="#333" stroke-width="1"/>
<text x="72.55" y="473" text-anchor="middle" font-family="Helvetica, Arial, sans-serif" font-size="11">0</text>
<line x1="398.80" y1="455" x2="398.80" y2="459" stroke="#333" stroke-width="1"/>
<text x="398.80" y="473" text-anchor="middle" font-family="Helvetica, Arial, sans-serif" font-size="11">64</text>
<line x1="725.05" y1="455" x2="725.05" y2="459" stroke="#333" stroke-width="1"/>
<text x="725.05" y="473" text-anchor="middle" font-family="Helvetica, Arial, sans-serif" font-size="11">128</text>
<line x1="1051.30" y1="455" x2="1051.30" y2="459" stroke="#333" stroke-width="1"/>
<text x="1051.30" y="473" text-anchor="middle" font-family="Helvetica, Arial, sans-serif" font-size="11">192</text>
<line x1="1372.45" y1="455" x2="1372.45" y2="459" stroke="#333" stroke-width="1"/>
<text x="1372.45" y="473" text-anchor="middle" font-family="Helvetica, Arial, sans-serif" font-size="11">255</text>
<rect x="70.000" y="55.000" width="4.894" height="400.000" fill="#2b8cbe"/>
<rect x="75.098" y="450.588" width="4.894" height="4.412" fill="#2b8cbe"/>
<rect x="80.195" y="455.000" width="4.894" height="0.000" fill="#d9d9d9"/>
<rect x="85.293" y="455.000" width="4.894" height="0.000" fill="#d9d9d9"/>
<rect x="90.391" y="455.000" width="4.894" height="0.000" fill="#d9d9d9"/>
<rect x="95.488" y="455.000" width="4.894" height="0.000" fill="#d9d9d9"/>
<rect x="100.586" y="455.000" width="4.894" height="0.000" fill="#d9d9d9"/>
<rect x="105.684" y="455.000" width="4.894" height="0.000" fill="#d9d9d9"/>
<rect x="110.781" y="455.000" width="4.894" height="0.000" fill="#d9d9d9"/>
<rect x="115.879" y="455.000" width="4.894" height="0.000" fill="#d9d9d9"/>
<rect x="120.977" y="455.000" width="4.894" height="0.000" fill="#d9d9d9"/>
<rect x="126.074" y="455.000" width="4.894" height="0.000" fill="#d9d9d9"/>
<rect x="131.172" y="455.000" width="4.894" height="0.000" fill="#d9d9d9"/>
<rect x="136.270" y="455.000" width="4.894" height="0.000" fill="#d9d9d9"/>
<rect x="141.367" y="455.000" width="4.894" height="0.000" fill="#d9d9d9"/>
<rect x="146.465" y="455.000" width="4.894" height="0.000" fill="#d9d9d9"/>
<rect x="151.562" y="455.000" width="4.894" height="0.000" fill="#d9d9d9"/>
<rect x="156.660" y="455.000" width="4.894" height="0.000" fill="#d9d9d9"/>
<rect x="161.758" y="455.000" width="4.894" height="0.000" fill="#d9d9d9"/>
<rect x="166.855" y="455.000" width="4.894" height="0.000" fill="#d9d9d9"/>
<rect x="171.953" y="455.000" width="4.894" height="0.000" fill="#d9d9d9"/>
<rect x="177.051" y="455.000" width="4.894" height="0.000" fill="#d9d9d9"/>
<rect x="182.148" y="455.000" width="4.894" height="0.000" fill="#d9d9d9"/>
<rect x="187.246" y="455.000" width="4.894" height="0.000" fill="#d9d9d9"/>
<rect x="192.344" y="455.000" width="4.894" height="0.000" fill="#d9d9d9"/>
<rect x="197.441" y="455.000" width="4.894" height="0.000" fill="#d9d9d9"/>
<rect x="202.539" y="455.000" width="4.894" height="0.000" fill="#d9d9d9"/>
<rect x="207.637" y="455.000" width="4.894" height="0.000" fill="#d9d9d9"/>
<rect x="212.734" y="455.000" width="4.894" height="0.000" fill="#d9d9d9"/>
<rect x="217.832" y="455.000" width="4.894" height="0.000" fill="#d9d9d9"/>
<rect x="222.930" y="455.000" width="4.894" height="0.000" fill="#d9d9d9"/>
<rect x="228.027" y="455.000" width="4.894" height="0.000" fill="#d9d9d9"/>
<rect x="233.125" y="455.000" width="4.894" height="0.000" fill="#d9d9d9"/>
<rect x="238.223" y="455.000" width="4.894" height="0.000" fill="#d9d9d9"/>
<rect x="243.320" y="455.000" width="4.894" height="0.000" fill="#d9d9d9"/>
<rect x="248.418" y="455.000" width="4.894" height="0.000" fill="#d9d9d9"/>
<rect x="253.516" y="455.000" width="4.894" height="0.000" fill="#d9d9d9"/>
<rect x="258.613" y="455.000" width="4.894" height="0.000" fill="#d9d9d9"/>
<rect x="263.711" y="455.000" width="4.894" height="0.000" fill="#d9d9d9"/>
<rect x="268.809" y="455.000" width="4.894" height="0.000" fill="#d9d9d9"/>
<rect x="273.906" y="455.000" width="4.894" height="0.000" fill="#d9d9d9"/>
<rect x="279.004" y="455.000" width="4.894" height="0.000" fill="#d9d9d9"/>
<rect x="284.102" y="455.000" width="4.894" height="0.000" fill="#d9d9d9"/>
<rect x="289.199" y="455.000" width="4.894" height="0.000" fill="#d9d9d9"/>
<rect x="294.297" y="455.000" width="4.894" height="0.000" fill="#d9d9d9"/>
<rect x="299.395" y="455.000" width="4.894" height="0.000" fill="#d9d9d9"/>
<rect x="304.492" y="455.000" width="4.894" height="0.000" fill="#d9d9d9"/>
<rect x="309.590" y="455.000" width="4.894" height="0.000" fill="#d9d9d9"/>
<rect x="314.688" y="455.000" width="4.894" height="0.000" fill="#d9d9d9"/>
<rect x="319.785" y="455.000" width="4.894" height="0.000" fill="#d9d9d9"/>
<rect x="324.883" y="455.000" width="4.894" height="0.000" fill="#d9d9d9"/>
<rect x="329.980" y="455.000" width="4.894" height="0.000" fill="#d9d9d9"/>
<rect x="335.078" y="455.000" width="4.894" height="0.000" fill="#d9d9d9"/>
<rect x="340.176" y="455.000" width="4.894" height="0.000" fill="#d9d9d9"/>
<rect x="345.273" y="455.000" width="4.894" height="0.000" fill="#d9d9d9"/>
<rect x="350.371" y="455.000" width="4.894" height="0.000" fill="#d9d9d9"/>
<rect x="355.469" y="455.000" width="4.894" height="0.000" fill="#d9d9d9"/>
<rect x="360.566" y="455.000" width="4.894" height="0.000" fill="#d9d9d9"/>
<rect x="365.664" y="455.000" width="4.894" height="0.000" fill="#d9d9d9"/>
<rect x="370.762" y="455.000" width="4.894" height="0.000" fill="#d9d9d9"/>
<rect x="375.859" y="455.000" width="4.894" height="0.000" fill="#d9d9d9"/>
<rect x="380.957" y="455.000" width="4.894" height="0.000" fill="#d9d9d9"/>
<rect x="386.055" y="455.000" width="4.894" height="0.000" fill="#d9d9d9"/>
<rect x="391.152" y="455.000" width="4.894" height="0.000" fill="#d9d9d9"/>
<rect x="396.250" y="455.000" width="4.894" height="0.000" fill="#d9d9d9"/>
<rect x="401.348" y="455.000" width="4.894" height="0.000" fill="#d9d9d9"/>
<rect x="406.445" y="455.000" width="4.894" height="0.000" fill="#d9d9d9"/>
<rect x="411.543" y="455.000" width="4.894" height="0.000" fill="#d9d9d9"/>
<rect x="416.641" y="455.000" width="4.894" height="0.000" fill="#d9d9d9"/>
<rect x="421.738" y="455.000" width="4.894" height="0.000" fill="#d9d9d9"/>
<rect x="426.836" y="455.000" width="4.894" height="0.000" fill="#d9d9d9"/>
<rect x="431.934" y="455.000" width="4.894" height="0.000" fill="#d9d9d9"/>
<rect x="437.031" y="455.000" width="4.894" height="0.000" fill="#d9d9d9"/>
<rect x="442.129" y="455.000" width="4.894" height="0.000" fill="#d9d9d9"/>
<rect x="447.227" y="455.000" width="4.894" height="0.000" fill="#d9d9d9"/>
<rect x="452.324" y="455.000" width="4.894" height="0.000" fill="#d9d9d9"/>
<rect x="457.422" y="455.000" width="4.894" height="0.000" fill="#d9d9d9"/>
<rect x="462.520" y="455.000" width="4.894" height="0.000" fill="#d9d9d9"/>
<rect x="467.617" y="455.000" width="4.894" height="0.000" fill="#d9d9d9"/>
<rect x="472.715" y="455.000" width="4.894" height="0.000" fill="#d9d9d9"/>
<rect x="477.812" y="455.000" width="4.894" height="0.000" fill="#d9d9d9"/>
<rect x="482.910" y="455.000" width="4.894" height="0.000" fill="#d9d9d9"/>
<rect x="488.008" y="455.000" width="4.894" height="0.000" fill="#d9d9d9"/>
<rect x="493.105" y="455.000" width="4.894" height="0.000" fill="#d9d9d9"/>
<rect x="498.203" y="455.000" width="4.894" height="0.000" fill="#d9d9d9"/>
<rect x="503.301" y="455.000" width="4.894" height="0.000" fill="#d9d9d9"/>
<rect x="508.398" y="455.000" width="4.894" height="0.000" fill="#d9d9d9"/>
<rect x="513.496" y="455.000" width="4.894" height="0.000" fill="#d9d9d9"/>
<rect x="518.594" y="455.000" width="4.894" height="0.000" fill="#d9d9d9"/>
<rect x="523.691" y="455.000" width="4.894" height="0.000" fill="#d9d9d9"/>
<rect x="528.789" y="455.000" width="4.894" height="0.000" fill="#d9d9d9"/>
<rect x="533.887" y="455.000" width="4.894" height="0.000" fill="#d9d9d9"/>
<rect x="538.984" y="455.000" width="4.894" height="0.000" fill="#d9d9d9"/>
<rect x="544.082" y="455.000" width="4.894" height="0.000" fill="#d9d9d9"/>
<rect x="549.180" y="455.000" width="4.894" height="0.000" fill="#d9d9d9"/>
<rect x="554.277" y="455.000" width="4.894" height="0.000" fill="#d9d9d9"/>
<rect x="559.375" y="455.000" width="4.894" height="0.000" fill="#d9d9d9"/>
<rect x="564.473" y="455.000" width="4.894" height="0.000" fill="#d9d9d9"/>
<rect x="569.570" y="455.000" width="4.894" height="0.000" fill="#d9d9d9"/>
<rect x="574.668" y="455.000" width="4.894" height="0.000" fill="#d9d9d9"/>
<rect x="579.766" y="455.000" width="4.894" height="0.000" fill="#d9d9d9"/>
<rect x="584.863" y="455.000" width="4.894" height="0.000" fill="#d9d9d9"/>
<rect x="589.961" y="455.000" width="4.894" height="0.000" fill="#d9d9d9"/>
<rect x="595.059" y="455.000" width="4.894" height="0.000" fill="#d9d9d9"/>
<rect x="600.156" y="455.000" width="4.894" height="0.000" fill="#d9d9d9"/>
<rect x="605.254" y="455.000" width="4.894" height="0.000" fill="#d9d9d9"/>
<rect x="610.352" y="455.000" width="4.894" height="0.000" fill="#d9d9d9"/>
<rect x="615.449" y="455.000" width="4.894" height="0.000" fill="#d9d9d9"/>
<rect x="620.547" y="455.000" width="4.894" height="0.000" fill="#d9d9d9"/>
<rect x="625.645" y="455.000" width="4.894" height="0.000" fill="#d9d9d9"/>
<rect x="630.742" y="455.000" width="4.894" height="0.000" fill="#d9d9d9"/>
<rect x="635.840" y="455.000" width="4.894" height="0.000" fill="#d9d9d9"/>
<rect x="640.938" y="455.000" width="4.894" height="0.000" fill="#d9d9d9"/>
<rect x="646.035" y="455.000" width="4.894" height="0.000" fill="#d9d9d9"/>
<rect x="651.133" y="455.000" width="4.894" height="0.000" fill="#d9d9d9"/>
<rect x="656.230" y="455.000" width="4.894" height="0.000" fill="#d9d9d9"/>
<rect x="661.328" y="455.000" width="4.894" height="0.000" fill="#d9d9d9"/>
<rect x="666.426" y="455.000" width="4.894" height="0.000" fill="#d9d9d9"/>
<rect x="671.523" y="455.000" width="4.894" height="0.000" fill="#d9d9d9"/>
<rect x="676.621" y="455.000" width="4.894" height="0.000" fill="#d9d9d9"/>
<rect x="681.719" y="455.000" width="4.894" height="0.000" fill="#d9d9d9"/>
<rect x="686.816" y="455.000" width="4.894" height="0.000" fill="#d9d9d9"/>
<rect x="691.914" y="455.000" width="4.894" height="0.000" fill="#d9d9d9"/>
<rect x="697.012" y="455.000" width="4.894" height="0.000" fill="#d9d9d9"/>
<rect x="702.109" y="455.000" width="4.894" height="0.000" fill="#d9d9d9"/>
<rect x="707.207" y="455.000" width="4.894" height="0.000" fill="#d9d9d9"/>
<rect x="712.305" y="455.000" width="4.894" height="0.000" fill="#d9d9d9"/>
<rect x="717.402" y="455.000" width="4.894" height="0.000" fill="#d9d9d9"/>
<rect x="722.500" y="455.000" width="4.894" height="0.000" fill="#d9d9d9"/>
<rect x="727.598" y="455.000" width="4.894" height="0.000" fill="#d9d9d9"/>
<rect x="732.695" y="455.000" width="4.894" height="0.000" fill="#d9d9d9"/>
<rect x="737.793" y="455.000" width="4.894" height="0.000" fill="#d9d9d9"/>
<rect x="742.891" y="455.000" width="4.894" height="0.000" fill="#d9d9d9"/>
<rect x="747.988" y="455.000" width="4.894" height="0.000" fill="#d9d9d9"/>
<rect x="753.086" y="455.000" width="4.894" height="0.000" fill="#d9d9d9"/>
<rect x="758.184" y="455.000" width="4.894" height="0.000" fill="#d9d9d9"/>
<rect x="763.281" y="455.000" width="4.894" height="0.000" fill="#d9d9d9"/>
<rect x="768.379" y="455.000" width="4.894" height="0.000" fill="#d9d9d9"/>
<rect x="773.477" y="455.000" width="4.894" height="0.000" fill="#d9d9d9"/>
<rect x="778.574" y="455.000" width="4.894" height="0.000" fill="#d9d9d9"/>
<rect x="783.672" y="455.000" width="4.894" height="0.000" fill="#d9d9d9"/>
<rect x="788.770" y="455.000" width="4.894" height="0.000" fill="#d9d9d9"/>
<rect x="793.867" y="455.000" width="4.894" height="0.000" fill="#d9d9d9"/>
<rect x="798.965" y="455.000" width="4.894" height="0.000" fill="#d9d9d9"/>
<rect x="804.062" y="455.000" width="4.894" height="0.000" fill="#d9d9d9"/>
<rect x="809.160" y="455.000" width="4.894" height="0.000" fill="#d9d9d9"/>
<rect x="814.258" y="455.000" width="4.894" height="0.000" fill="#d9d9d9"/>
<rect x="819.355" y="455.000" width="4.894" height="0.000" fill="#d9d9d9"/>
<rect x="824.453" y="455.000" width="4.894" height="0.000" fill="#d9d9d9"/>
<rect x="829.551" y="455.000" width="4.894" height="0.000" fill="#d9d9d9"/>
<rect x="834.648" y="455.000" width="4.894" height="0.000" fill="#d9d9d9"/>
<rect x="839.746" y="455.000" width="4.894" height="0.000" fill="#d9d9d9"/>
<rect x="844.844" y="455.000" width="4.894" height="0.000" fill="#d9d9d9"/>
<rect x="849.941" y="455.000" width="4.894" height="0.000" fill="#d9d9d9"/>
<rect x="855.039" y="455.000" width="4.894" height="0.000" fill="#d9d9d9"/>
<rect x="860.137" y="455.000" width="4.894" height="0.000" fill="#d9d9d9"/>
<rect x="865.234" y="455.000" width="4.894" height="0.000" fill="#d9d9d9"/>
<rect x="870.332" y="455.000" width="4.894" height="0.000" fill="#d9d9d9"/>
<rect x="875.430" y="455.000" width="4.894" height="0.000" fill="#d9d9d9"/>
<rect x="880.527" y="455.000" width="4.894" height="0.000" fill="#d9d9d9"/>
<rect x="885.625" y="455.000" width="4.894" height="0.000" fill="#d9d9d9"/>
<rect x="890.723" y="455.000" width="4.894" height="0.000" fill="#d9d9d9"/>
<rect x="895.820" y="455.000" width="4.894" height="0.000" fill="#d9d9d9"/>
<rect x="900.918" y="455.000" width="4.894" height="0.000" fill="#d9d9d9"/>
<rect x="906.016" y="455.000" width="4.894" height="0.000" fill="#d9d9d9"/>
<rect x="911.113" y="455.000" width="4.894" height="0.000" fill="#d9d9d9"/>
<rect x="916.211" y="455.000" width="4.894" height="0.000" fill="#d9d9d9"/>
<rect x="921.309" y="455.000" width="4.894" height="0.000" fill="#d9d9d9"/>
<rect x="926.406" y="455.000" width="4.894" height="0.000" fill="#d9d9d9"/>
<rect x="931.504" y="455.000" width="4.894" height="0.000" fill="#d9d9d9"/>
<rect x="936.602" y="455.000" width="4.894" height="0.000" fill="#d9d9d9"/>
<rect x="941.699" y="455.000" width="4.894" height="0.000" fill="#d9d9d9"/>
<rect x="946.797" y="455.000" width="4.894" height="0.000" fill="#d9d9d9"/>
<rect x="951.895" y="455.000" width="4.894" height="0.000" fill="#d9d9d9"/>
<rect x="956.992" y="455.000" width="4.894" height="0.000" fill="#d9d9d9"/>
<rect x="962.090" y="455.000" width="4.894" height="0.000" fill="#d9d9d9"/>
<rect x="967.188" y="455.000" width="4.894" height="0.000" fill="#d9d9d9"/>
<rect x="972.285" y="455.000" width="4.894" height="0.000" fill="#d9d9d9"/>
<rect x="977.383" y="455.000" width="4.894" height="0.000" fill="#d9d9d9"/>
<rect x="982.480" y="455.000" width="4.894" height="0.000" fill="#d9d9d9"/>
<rect x="987.578" y="455.000" width="4.894" height="0.000" fill="#d9d9d9"/>
<rect x="992.676" y="455.000" width="4.894" height="0.000" fill="#d9d9d9"/>
<rect x="997.773" y="455.000" width="4.894" height="0.000" fill="#d9d9d9"/>
<rect x="1002.871" y="455.000" width="4.894" height="0.000" fill="#d9d9d9"/>
<rect x="1007.969" y="455.000" width="4.894" height="0.000" fill="#d9d9d9"/>
<rect x="1013.066" y="455.000" width="4.894" height="0.000" fill="#d9d9d9"/>
<rect x="1018.164" y="455.000" width="4.894" height="0.000" fill="#d9d9d9"/>
<rect x="1023.262" y="455.000" width="4.894" height="0.000" fill="#d9d9d9"/>
<rect x="1028.359" y="455.000" width="4.894" height="0.000" fill="#d9d9d9"/>
<rect x="1033.457" y="455.000" width="4.894" height="0.000" fill="#d9d9d9"/>
<rect x="1038.555" y="455.000" width="4.894" height="0.000" fill="#d9d9d9"/>
<rect x="1043.652" y="455.000" width="4.894" height="0.000" fill="#d9d9d9"/>
<rect x="1048.750" y="455.000" width="4.894" height="0.000" fill="#d9d9d9"/>
<rect x="1053.848" y="455.000" width="4.894" height="0.000" fill="#d9d9d9"/>
<rect x="1058.945" y="455.000" width="4.894" height="0.000" fill="#d9d9d9"/>
<rect x="1064.043" y="455.000" width="4.894" height="0.000" fill="#d9d9d9"/>
<rect x="1069.141" y="455.000" width="4.894" height="0.000" fill="#d9d9d9"/>
<rect x="1074.238" y="455.000" width="4.894" height="0.000" fill="#d9d9d9"/>
<rect x="1079.336" y="455.000" width="4.894" height="0.000" fill="#d9d9d9"/>
<rect x="1084.434" y="455.000" width="4.894" height="0.000" fill="#d9d9d9"/>
<rect x="1089.531" y="455.000" width="4.894" height="0.000" fill="#d9d9d9"/>
<rect x="1094.629" y="455.000" width="4.894" height="0.000" fill="#d9d9d9"/>
<rect x="1099.727" y="455.000" width="4.894" height="0.000" fill="#d9d9d9"/>
<rect x="1104.824" y="455.000" width="4.894" height="0.000" fill="#d9d9d9"/>
<rect x="1109.922" y="455.000" width="4.894" height="0.000" fill="#d9d9d9"/>
<rect x="1115.020" y="455.000" width="4.894" height="0.000" fill="#d9d9d9"/>
<rect x="1120.117" y="455.000" width="4.894" height="0.000" fill="#d9d9d9"/>
<rect x="1125.215" y="455.000" width="4.894" height="0.000" fill="#d9d9d9"/>
<rect x="1130.312" y="455.000" width="4.894" height="0.000" fill="#d9d9d9"/>
<rect x="1135.410" y="455.000" width="4.894" height="0.000" fill="#d9d9d9"/>
<rect x="1140.508" y="455.000" width="4.894" height="0.000" fill="#d9d9d9"/>
<rect x="1145.605" y="455.000" width="4.894" height="0.000" fill="#d9d9d9"/>
<rect x="1150.703" y="455.000" width="4.894" height="0.000" fill="#d9d9d9"/>
<rect x="1155.801" y="455.000" width="4.894" height="0.000" fill="#d9d9d9"/>
<rect x="1160.898" y="455.000" width="4.894" height="0.000" fill="#d9d9d9"/>
<rect x="1165.996" y="455.000" width="4.894" height="0.000" fill="#d9d9d9"/>
<rect x="1171.094" y="455.000" width="4.894" height="0.000" fill="#d9d9d9"/>
<rect x="1176.191" y="455.000" width="4.894" height="0.000" fill="#d9d9d9"/>
<rect x="1181.289" y="455.000" width="4.894" height="0.000" fill="#d9d9d9"/>
<rect x="1186.387" y="455.000" width="4.894" height="0.000" fill="#d9d9d9"/>
<rect x="1191.484" y="455.000" width="4.894" height="0.000" fill="#d9d9d9"/>
<rect x="1196.582" y="455.000" width="4.894" height="0.000" fill="#d9d9d9"/>
<rect x="1201.680" y="455.000" width="4.894" height="0.000" fill="#d9d9d9"/>
<rect x="1206.777" y="455.000" width="4.894" height="0.000" fill="#d9d9d9"/>
<rect x="1211.875" y="455.000" width="4.894" height="0.000" fill="#d9d9d9"/>
<rect x="1216.973" y="455.000" width="4.894" height="0.000" fill="#d9d9d9"/>
<rect x="1222.070" y="455.000" width="4.894" height="0.000" fill="#d9d9d9"/>
<rect x="1227.168" y="455.000" width="4.894" height="0.000" fill="#d9d9d9"/>
<rect x="1232.266" y="455.000" width="4.894" height="0.000" fill="#d9d9d9"/>
<rect x="1237.363" y="455.000" width="4.894" height="0.000" fill="#d9d9d9"/>
<rect x="1242.461" y="455.000" width="4.894" height="0.000" fill="#d9d9d9"/>
<rect x="1247.559" y="455.000" width="4.894" height="0.000" fill="#d9d9d9"/>
<rect x="1252.656" y="455.000" width="4.894" height="0.000" fill="#d9d9d9"/>
<rect x="1257.754" y="455.000" width="4.894" height="0.000" fill="#d9d9d9"/>
<rect x="1262.852" y="455.000" width="4.894" height="0.000" fill="#d9d9d9"/>
<rect x="1267.949" y="455.000" width="4.894" height="0.000" fill="#d9d9d9"/>
<rect x="1273.047" y="455.000" width="4.894" height="0.000" fill="#d9d9d9"/>
<rect x="1278.145" y="455.000" width="4.894" height="0.000" fill="#d9d9d9"/>
<rect x="1283.242" y="455.000" width="4.894" height="0.000" fill="#d9d9d9"/>
<rect x="1288.340" y="455.000" width="4.894" height="0.000" fill="#d9d9d9"/>
<rect x="1293.438" y="455.000" width="4.894" height="0.000" fill="#d9d9d9"/>
<rect x="1298.535" y="455.000" width="4.894" height="0.000" fill="#d9d9d9"/>
<rect x="1303.633" y="455.000" width="4.894" height="0.000" fill="#d9d9d9"/>
<rect x="1308.730" y="455.000" width="4.894" height="0.000" fill="#d9d9d9"/>
<rect x="1313.828" y="455.000" width="4.894" height="0.000" fill="#d9d9d9"/>
<rect x="1318.926" y="455.000" width="4.894" height="0.000" fill="#d9d9d9"/>
<rect x="1324.023" y="455.000" width="4.894" height="0.000" fill="#d9d9d9"/>
<rect x="1329.121" y="455.000" width="4.894" height="0.000" fill="#d9d9d9"/>
<rect x="1334.219" y="455.000" width="4.894" height="0.000" fill="#d9d9d9"/>
<rect x="1339.316" y="455.000" width="4.894" height="0.000" fill="#d9d9d9"/>
<rect x="1344.414" y="455.000" width="4.894" height="0.000" fill="#d9d9d9"/>
<rect x="1349.512" y="455.000" width="4.894" height="0.000" fill="#d9d9d9"/>
<rect x="1354.609" y="455.000" width="4.894" height="0.000" fill="#d9d9d9"/>
<rect x="1359.707" y="455.000" width="4.894" height="0.000" fill="#d9d9d9"/>
<rect x="1364.805" y="455.000" width="4.894" height="0.000" fill="#d9d9d9"/>
<rect x="1369.902" y="455.000" width="4.894" height="0.000" fill="#d9d9d9"/>
<text x="722.5" y="500" text-anchor="middle" font-family="Helvetica, Arial, sans-serif" font-size="13">Brightness level</text>
<text x="20" y="255.0" transform="rotate(-90 20 255.0)" text-anchor="middle" font-family="Helvetica, Arial, sans-serif" font-size="13">Pixel count</text>
<text x="1390" y="512" text-anchor="end" font-family="Helvetica, Arial, sans-serif" font-size="11" fill="#666">Total pixels: 218174</text>
</svg>